CATALOG 4974365816810
FILE "Photo CD Operating System v1.002 (1995)(Sega)(PAL)(Track 1 of 3)[!][MK-81681P-485].iso" BINARY
  TRACK 01 MODE1/2048
    INDEX 01 00:00:00
FILE "Photo CD Operating System v1.002 (1995)(Sega)(PAL)(Track 2 of 3)[!][MK-81681P-485].iso" BINARY
  TRACK 02 MODE2/2336
    PREGAP 00:03:00
    INDEX 01 00:00:00
FILE "Photo CD Operating System v1.002 (1995)(Sega)(PAL)(Track 3 of 3)[!][MK-81681P-485].wav" WAVE
  TRACK 03 AUDIO
    PREGAP 00:02:00
    INDEX 01 00:00:00
